<mxfile host="app.diagrams.net" modified="2023-02-02T02:53:43.173Z" agent="5.0 (Windows NT 10.0; Win64; x64) AppleWebKit/537.36 (KHTML, like Gecko) Chrome/109.0.0.0 Safari/537.36" etag="PBXoVL95kM8BxRL1OjP9" version="20.8.13" type="github">
  <diagram name="第 1 页" id="PB0HMO7qTsXfRS3Tt1VE">
    <mxGraphModel dx="792" dy="1154" grid="1" gridSize="10" guides="1" tooltips="1" connect="1" arrows="1" fold="1" page="1" pageScale="1" pageWidth="827" pageHeight="1169" math="0" shadow="0">
      <root>
        <mxCell id="0" />
        <mxCell id="1" parent="0" />
        <mxCell id="atRBTWwNDYXVHSfVTS02-3" value="" style="edgeStyle=orthogonalEdgeStyle;rounded=0;orthogonalLoop=1;jettySize=auto;html=1;entryX=0;entryY=0.5;entryDx=0;entryDy=0;exitX=1;exitY=0.5;exitDx=0;exitDy=0;" edge="1" parent="1" source="atRBTWwNDYXVHSfVTS02-27" target="atRBTWwNDYXVHSfVTS02-9">
          <mxGeometry relative="1" as="geometry">
            <mxPoint x="490" y="155" as="sourcePoint" />
            <mxPoint x="630" y="125" as="targetPoint" />
          </mxGeometry>
        </mxCell>
        <mxCell id="atRBTWwNDYXVHSfVTS02-4" value="return" style="edgeLabel;html=1;align=center;verticalAlign=middle;resizable=0;points=[];" vertex="1" connectable="0" parent="atRBTWwNDYXVHSfVTS02-3">
          <mxGeometry x="-0.2833" relative="1" as="geometry">
            <mxPoint as="offset" />
          </mxGeometry>
        </mxCell>
        <mxCell id="atRBTWwNDYXVHSfVTS02-8" value="Store" style="swimlane;fontStyle=0;childLayout=stackLayout;horizontal=1;startSize=30;horizontalStack=0;resizeParent=1;resizeParentMax=0;resizeLast=0;collapsible=1;marginBottom=0;whiteSpace=wrap;html=1;" vertex="1" parent="1">
          <mxGeometry x="570" y="140" width="140" height="180" as="geometry">
            <mxRectangle x="420" y="400" width="60" height="30" as="alternateBounds" />
          </mxGeometry>
        </mxCell>
        <mxCell id="atRBTWwNDYXVHSfVTS02-9" value="dispatch" style="text;strokeColor=none;fillColor=none;align=left;verticalAlign=middle;spacingLeft=4;spacingRight=4;overflow=hidden;points=[[0,0.5],[1,0.5]];portConstraint=eastwest;rotatable=0;whiteSpace=wrap;html=1;" vertex="1" parent="atRBTWwNDYXVHSfVTS02-8">
          <mxGeometry y="30" width="140" height="30" as="geometry" />
        </mxCell>
        <mxCell id="atRBTWwNDYXVHSfVTS02-10" value="subscribe" style="text;strokeColor=none;fillColor=none;align=left;verticalAlign=middle;spacingLeft=4;spacingRight=4;overflow=hidden;points=[[0,0.5],[1,0.5]];portConstraint=eastwest;rotatable=0;whiteSpace=wrap;html=1;" vertex="1" parent="atRBTWwNDYXVHSfVTS02-8">
          <mxGeometry y="60" width="140" height="30" as="geometry" />
        </mxCell>
        <mxCell id="atRBTWwNDYXVHSfVTS02-11" value="getState" style="text;strokeColor=none;fillColor=none;align=left;verticalAlign=middle;spacingLeft=4;spacingRight=4;overflow=hidden;points=[[0,0.5],[1,0.5]];portConstraint=eastwest;rotatable=0;whiteSpace=wrap;html=1;" vertex="1" parent="atRBTWwNDYXVHSfVTS02-8">
          <mxGeometry y="90" width="140" height="30" as="geometry" />
        </mxCell>
        <mxCell id="atRBTWwNDYXVHSfVTS02-16" value="replaceReducer" style="text;strokeColor=none;fillColor=none;align=left;verticalAlign=middle;spacingLeft=4;spacingRight=4;overflow=hidden;points=[[0,0.5],[1,0.5]];portConstraint=eastwest;rotatable=0;whiteSpace=wrap;html=1;" vertex="1" parent="atRBTWwNDYXVHSfVTS02-8">
          <mxGeometry y="120" width="140" height="30" as="geometry" />
        </mxCell>
        <mxCell id="atRBTWwNDYXVHSfVTS02-17" value="[$$observable]: observable" style="text;strokeColor=none;fillColor=none;align=left;verticalAlign=middle;spacingLeft=4;spacingRight=4;overflow=hidden;points=[[0,0.5],[1,0.5]];portConstraint=eastwest;rotatable=0;whiteSpace=wrap;html=1;" vertex="1" parent="atRBTWwNDYXVHSfVTS02-8">
          <mxGeometry y="150" width="140" height="30" as="geometry" />
        </mxCell>
        <mxCell id="atRBTWwNDYXVHSfVTS02-27" value="createStore" style="shape=process;whiteSpace=wrap;html=1;backgroundOutline=1;strokeColor=default;" vertex="1" parent="1">
          <mxGeometry x="370" y="160" width="120" height="50" as="geometry" />
        </mxCell>
        <mxCell id="atRBTWwNDYXVHSfVTS02-59" value="" style="endArrow=classic;html=1;rounded=0;entryX=0;entryY=0.5;entryDx=0;entryDy=0;exitX=1;exitY=0.5;exitDx=0;exitDy=0;" edge="1" parent="1" source="atRBTWwNDYXVHSfVTS02-62" target="atRBTWwNDYXVHSfVTS02-27">
          <mxGeometry width="50" height="50" relative="1" as="geometry">
            <mxPoint x="301" y="174" as="sourcePoint" />
            <mxPoint x="580" y="395" as="targetPoint" />
          </mxGeometry>
        </mxCell>
        <mxCell id="atRBTWwNDYXVHSfVTS02-60" value="input" style="edgeLabel;html=1;align=center;verticalAlign=middle;resizable=0;points=[];" vertex="1" connectable="0" parent="atRBTWwNDYXVHSfVTS02-59">
          <mxGeometry x="-0.2857" y="-1" relative="1" as="geometry">
            <mxPoint x="8" y="-2" as="offset" />
          </mxGeometry>
        </mxCell>
        <mxCell id="atRBTWwNDYXVHSfVTS02-61" value="createStoreProps" style="swimlane;fontStyle=0;childLayout=stackLayout;horizontal=1;startSize=30;horizontalStack=0;resizeParent=1;resizeParentMax=0;resizeLast=0;collapsible=1;marginBottom=0;whiteSpace=wrap;html=1;" vertex="1" parent="1">
          <mxGeometry x="60" y="140" width="240" height="120" as="geometry">
            <mxRectangle x="420" y="400" width="60" height="30" as="alternateBounds" />
          </mxGeometry>
        </mxCell>
        <mxCell id="atRBTWwNDYXVHSfVTS02-62" value="reducer: Reducer" style="text;strokeColor=none;fillColor=none;align=left;verticalAlign=middle;spacingLeft=4;spacingRight=4;overflow=hidden;points=[[0,0.5],[1,0.5]];portConstraint=eastwest;rotatable=0;whiteSpace=wrap;html=1;" vertex="1" parent="atRBTWwNDYXVHSfVTS02-61">
          <mxGeometry y="30" width="240" height="30" as="geometry" />
        </mxCell>
        <mxCell id="atRBTWwNDYXVHSfVTS02-63" value="preloadedState: PreloadedState | StoreEnhancer" style="text;strokeColor=none;fillColor=none;align=left;verticalAlign=middle;spacingLeft=4;spacingRight=4;overflow=hidden;points=[[0,0.5],[1,0.5]];portConstraint=eastwest;rotatable=0;whiteSpace=wrap;html=1;" vertex="1" parent="atRBTWwNDYXVHSfVTS02-61">
          <mxGeometry y="60" width="240" height="30" as="geometry" />
        </mxCell>
        <mxCell id="atRBTWwNDYXVHSfVTS02-65" value="enhancer?: StoreEnhancer" style="text;strokeColor=none;fillColor=none;align=left;verticalAlign=middle;spacingLeft=4;spacingRight=4;overflow=hidden;points=[[0,0.5],[1,0.5]];portConstraint=eastwest;rotatable=0;whiteSpace=wrap;html=1;" vertex="1" parent="atRBTWwNDYXVHSfVTS02-61">
          <mxGeometry y="90" width="240" height="30" as="geometry" />
        </mxCell>
      </root>
    </mxGraphModel>
  </diagram>
</mxfile>
